<svg width="21" height="21" viewBox="0 0 21 21" fill="none" xmlns="http://www.w3.org/2000/svg">
<path d="M6.9 18.004C8.80858 18.983 11.0041 19.2482 13.0909 18.7517C15.1777 18.2553 17.0186 17.0298 18.2818 15.2961C19.545 13.5625 20.1474 11.4347 19.9806 9.29611C19.8137 7.15757 18.8886 5.14892 17.3718 3.63215C15.855 2.11537 13.8464 1.1902 11.7078 1.02337C9.56929 0.856534 7.44147 1.459 5.70782 2.7222C3.97417 3.9854 2.74869 5.82626 2.25222 7.91307C1.75575 9.99987 2.02094 12.1954 3 14.104L1 20.004L6.9 18.004Z" stroke="#808080" stroke-width="2" stroke-linecap="round" stroke-linejoin="round"/>
<path d="M8.08984 7.00399C8.32495 6.33566 8.789 5.77209 9.3998 5.41312C10.0106 5.05415 10.7287 4.92293 11.427 5.0427C12.1253 5.16247 12.7587 5.52551 13.2149 6.06752C13.6712 6.60952 13.9209 7.29551 13.9198 8.00399C13.9198 10.004 10.9198 11.004 10.9198 11.004" stroke="#808080" stroke-width="2" stroke-linecap="round" stroke-linejoin="round"/>
<path d="M11 15.0039H11.01" stroke="#808080" stroke-width="2" stroke-linecap="round" stroke-linejoin="round"/>
</svg>
