<svg width="50" height="51" viewBox="0 0 50 51" fill="none" xmlns="http://www.w3.org/2000/svg">
<circle cx="25" cy="25.5" r="25" fill="#E6E6FF"/>
<path d="M29.0001 35.5268V32.6568C29.0376 32.18 28.9732 31.7006 28.8111 31.2506C28.649 30.8006 28.393 30.3902 28.0601 30.0468C31.2001 29.6968 34.5001 28.5068 34.5001 23.0468C34.4998 21.6506 33.9628 20.308 33.0001 19.2968C33.4559 18.0753 33.4237 16.7251 32.9101 15.5268C32.9101 15.5268 31.7301 15.1768 29.0001 17.0068C26.7081 16.3856 24.2921 16.3856 22.0001 17.0068C19.2701 15.1768 18.0901 15.5268 18.0901 15.5268C17.5764 16.7251 17.5442 18.0753 18.0001 19.2968C17.0302 20.3155 16.4926 21.6703 16.5001 23.0768C16.5001 28.4968 19.8001 29.6868 22.9401 30.0768C22.6111 30.4168 22.3573 30.8222 22.1954 31.2667C22.0334 31.7112 21.9669 32.1849 22.0001 32.6568V35.5268" stroke="#0000FF" stroke-width="2" stroke-linecap="round" stroke-linejoin="round"/>
<path d="M22 33.5269C19 34.5001 16.5 33.5269 15 30.5269" stroke="#0000FF" stroke-width="2" stroke-linecap="round" stroke-linejoin="round"/>
</svg>
