<svg width="106" height="90" viewBox="0 0 106 90" fill="none" xmlns="http://www.w3.org/2000/svg">
<path d="M91.106 49.8118L103.518 62.0578L48.4103 88.3702C48.4103 88.3702 41.1289 91.68 37.6537 86.3844C24.0838 65.2021 91.106 49.8118 91.106 49.8118Z" fill="#962C2C"/>
<path d="M47.0858 72.9798C47.0858 72.9798 36.4946 76.6205 38.4804 83.7365C40.4663 91.0179 48.9061 86.5498 48.9061 86.5498L101.2 62.2232C101.2 62.2232 98.2213 54.4453 103.517 49.3152L47.0858 72.9798Z" fill="#D9E3E8"/>
<path d="M55.8571 0L106 48.8187L46.7554 71.9868L8.69336 12.7425L55.8571 0Z" fill="#FFCE31"/>
<path d="M57.346 11.0876L66.9443 21.3478L31.0336 34.2558L22.5938 21.1824L57.346 11.0876Z" fill="white"/>
<path d="M101.035 54.611L66.1175 68.8428L100.539 53.1216L101.035 54.611ZM100.539 58.9136L63.3042 74.3039L99.8768 57.2588L100.539 58.9136ZM100.87 61.2304L53.375 81.9163L100.208 59.7411L100.87 61.2304Z" fill="#94989B"/>
<path d="M37.6534 86.3844C31.8614 74.3038 46.7552 72.1525 46.7552 72.1525L8.69321 12.7426C8.69321 12.7426 0.0878906 12.5772 0.0878906 21.5135C0.0878906 25.1542 1.74276 27.9674 1.74276 27.9674L37.6534 86.3844Z" fill="#FF8736"/>
</svg>
